<mxfile host="app.diagrams.net" agent="Mozilla/5.0 (Windows NT 10.0; Win64; x64) AppleWebKit/537.36 (KHTML, like Gecko) Chrome/131.0.0.0 Safari/537.36" version="26.0.7">
  <diagram name="Page-1" id="sgWtn-t6lPrCJvlAa0WJ">
    <mxGraphModel dx="1434" dy="772" grid="1" gridSize="10" guides="1" tooltips="1" connect="1" arrows="1" fold="1" page="1" pageScale="1" pageWidth="850" pageHeight="1100" math="0" shadow="0">
      <root>
        <mxCell id="0" />
        <mxCell id="1" parent="0" />
        <mxCell id="vb8eYQS8NtuVJ4IHICRe-1" value="&lt;div style=&quot;text-align: left;&quot;&gt;&lt;b style=&quot;font-size: 14px; background-color: transparent; color: light-dark(rgb(0, 0, 0), rgb(255, 255, 255));&quot;&gt;Requisitos&lt;/b&gt;&lt;span style=&quot;font-size: 14px; background-color: transparent; color: light-dark(rgb(0, 0, 0), rgb(255, 255, 255));&quot;&gt;:&lt;/span&gt;&lt;/div&gt;&lt;div style=&quot;&quot;&gt;&lt;div style=&quot;text-align: left;&quot;&gt;&lt;span style=&quot;font-size: 14px;&quot;&gt;&lt;br&gt;&lt;/span&gt;&lt;/div&gt;• Sistema existente&lt;br&gt;• 20000/s → 40000/s&lt;br&gt;• 1 dia&lt;br&gt;&lt;/div&gt;" style="rounded=0;whiteSpace=wrap;html=1;" vertex="1" parent="1">
          <mxGeometry x="50" y="60" width="280" height="110" as="geometry" />
        </mxCell>
        <mxCell id="vb8eYQS8NtuVJ4IHICRe-3" style="edgeStyle=orthogonalEdgeStyle;rounded=0;orthogonalLoop=1;jettySize=auto;html=1;" edge="1" parent="1" source="vb8eYQS8NtuVJ4IHICRe-2">
          <mxGeometry relative="1" as="geometry">
            <mxPoint x="240" y="290" as="targetPoint" />
          </mxGeometry>
        </mxCell>
        <mxCell id="vb8eYQS8NtuVJ4IHICRe-40" style="edgeStyle=orthogonalEdgeStyle;rounded=0;orthogonalLoop=1;jettySize=auto;html=1;entryX=1;entryY=0.5;entryDx=0;entryDy=0;" edge="1" parent="1" target="vb8eYQS8NtuVJ4IHICRe-41">
          <mxGeometry relative="1" as="geometry">
            <mxPoint x="340" y="390" as="targetPoint" />
            <mxPoint x="170" y="280" as="sourcePoint" />
            <Array as="points">
              <mxPoint x="440" y="280" />
              <mxPoint x="440" y="390" />
            </Array>
          </mxGeometry>
        </mxCell>
        <mxCell id="vb8eYQS8NtuVJ4IHICRe-2" value="Client" style="rounded=0;whiteSpace=wrap;html=1;" vertex="1" parent="1">
          <mxGeometry x="50" y="260" width="120" height="60" as="geometry" />
        </mxCell>
        <mxCell id="vb8eYQS8NtuVJ4IHICRe-13" style="edgeStyle=orthogonalEdgeStyle;rounded=0;orthogonalLoop=1;jettySize=auto;html=1;entryX=0;entryY=0.5;entryDx=0;entryDy=0;" edge="1" parent="1" source="vb8eYQS8NtuVJ4IHICRe-4" target="vb8eYQS8NtuVJ4IHICRe-14">
          <mxGeometry relative="1" as="geometry">
            <mxPoint x="470" y="200" as="targetPoint" />
          </mxGeometry>
        </mxCell>
        <mxCell id="vb8eYQS8NtuVJ4IHICRe-15" style="edgeStyle=orthogonalEdgeStyle;rounded=0;orthogonalLoop=1;jettySize=auto;html=1;exitX=1;exitY=0.25;exitDx=0;exitDy=0;entryX=0;entryY=0.75;entryDx=0;entryDy=0;" edge="1" parent="1" source="vb8eYQS8NtuVJ4IHICRe-4" target="vb8eYQS8NtuVJ4IHICRe-16">
          <mxGeometry relative="1" as="geometry">
            <mxPoint x="570" y="275" as="targetPoint" />
          </mxGeometry>
        </mxCell>
        <mxCell id="vb8eYQS8NtuVJ4IHICRe-43" style="edgeStyle=orthogonalEdgeStyle;rounded=0;orthogonalLoop=1;jettySize=auto;html=1;exitX=1;exitY=0.75;exitDx=0;exitDy=0;" edge="1" parent="1" source="vb8eYQS8NtuVJ4IHICRe-4">
          <mxGeometry relative="1" as="geometry">
            <mxPoint x="580" y="305" as="targetPoint" />
          </mxGeometry>
        </mxCell>
        <mxCell id="vb8eYQS8NtuVJ4IHICRe-56" style="edgeStyle=orthogonalEdgeStyle;rounded=0;orthogonalLoop=1;jettySize=auto;html=1;exitX=0.75;exitY=1;exitDx=0;exitDy=0;entryX=0.75;entryY=0;entryDx=0;entryDy=0;" edge="1" parent="1" source="vb8eYQS8NtuVJ4IHICRe-4" target="vb8eYQS8NtuVJ4IHICRe-12">
          <mxGeometry relative="1" as="geometry" />
        </mxCell>
        <mxCell id="vb8eYQS8NtuVJ4IHICRe-4" value="Server&lt;br&gt;20000" style="rounded=0;whiteSpace=wrap;html=1;" vertex="1" parent="1">
          <mxGeometry x="410" y="260" width="120" height="60" as="geometry" />
        </mxCell>
        <mxCell id="vb8eYQS8NtuVJ4IHICRe-50" style="edgeStyle=orthogonalEdgeStyle;rounded=0;orthogonalLoop=1;jettySize=auto;html=1;exitX=0.75;exitY=1;exitDx=0;exitDy=0;entryX=1;entryY=0.5;entryDx=0;entryDy=0;" edge="1" parent="1" source="vb8eYQS8NtuVJ4IHICRe-6" target="vb8eYQS8NtuVJ4IHICRe-49">
          <mxGeometry relative="1" as="geometry" />
        </mxCell>
        <mxCell id="vb8eYQS8NtuVJ4IHICRe-6" value="DB" style="rounded=0;whiteSpace=wrap;html=1;" vertex="1" parent="1">
          <mxGeometry x="730" y="390" width="120" height="60" as="geometry" />
        </mxCell>
        <mxCell id="vb8eYQS8NtuVJ4IHICRe-10" style="edgeStyle=orthogonalEdgeStyle;rounded=0;orthogonalLoop=1;jettySize=auto;html=1;entryX=0;entryY=0.5;entryDx=0;entryDy=0;" edge="1" parent="1" source="vb8eYQS8NtuVJ4IHICRe-9" target="vb8eYQS8NtuVJ4IHICRe-4">
          <mxGeometry relative="1" as="geometry" />
        </mxCell>
        <mxCell id="vb8eYQS8NtuVJ4IHICRe-9" value="Load Balance" style="rounded=0;whiteSpace=wrap;html=1;" vertex="1" parent="1">
          <mxGeometry x="240" y="260" width="120" height="60" as="geometry" />
        </mxCell>
        <mxCell id="vb8eYQS8NtuVJ4IHICRe-12" value="Redis" style="rounded=0;whiteSpace=wrap;html=1;" vertex="1" parent="1">
          <mxGeometry x="410" y="440" width="120" height="60" as="geometry" />
        </mxCell>
        <mxCell id="vb8eYQS8NtuVJ4IHICRe-57" style="edgeStyle=orthogonalEdgeStyle;rounded=0;orthogonalLoop=1;jettySize=auto;html=1;entryX=0.5;entryY=1;entryDx=0;entryDy=0;" edge="1" parent="1" source="vb8eYQS8NtuVJ4IHICRe-14" target="vb8eYQS8NtuVJ4IHICRe-58">
          <mxGeometry relative="1" as="geometry">
            <mxPoint x="740" y="190" as="targetPoint" />
          </mxGeometry>
        </mxCell>
        <mxCell id="vb8eYQS8NtuVJ4IHICRe-14" value="Web API&lt;br&gt;Analytcs" style="rounded=0;whiteSpace=wrap;html=1;" vertex="1" parent="1">
          <mxGeometry x="580" y="160" width="120" height="60" as="geometry" />
        </mxCell>
        <mxCell id="vb8eYQS8NtuVJ4IHICRe-17" style="edgeStyle=orthogonalEdgeStyle;rounded=0;orthogonalLoop=1;jettySize=auto;html=1;entryX=0.5;entryY=0;entryDx=0;entryDy=0;" edge="1" parent="1" source="vb8eYQS8NtuVJ4IHICRe-16" target="vb8eYQS8NtuVJ4IHICRe-6">
          <mxGeometry relative="1" as="geometry" />
        </mxCell>
        <mxCell id="vb8eYQS8NtuVJ4IHICRe-16" value="Web API&lt;br&gt;Consulta" style="rounded=0;whiteSpace=wrap;html=1;" vertex="1" parent="1">
          <mxGeometry x="580" y="230" width="120" height="60" as="geometry" />
        </mxCell>
        <mxCell id="vb8eYQS8NtuVJ4IHICRe-19" value="Consumidor Final" style="text;html=1;align=center;verticalAlign=middle;whiteSpace=wrap;rounded=0;" vertex="1" parent="1">
          <mxGeometry x="40" y="190" width="60" height="30" as="geometry" />
        </mxCell>
        <mxCell id="vb8eYQS8NtuVJ4IHICRe-20" value="Administrador" style="text;html=1;align=center;verticalAlign=middle;whiteSpace=wrap;rounded=0;" vertex="1" parent="1">
          <mxGeometry x="50" y="540" width="60" height="30" as="geometry" />
        </mxCell>
        <mxCell id="vb8eYQS8NtuVJ4IHICRe-21" style="edgeStyle=orthogonalEdgeStyle;rounded=0;orthogonalLoop=1;jettySize=auto;html=1;entryX=0;entryY=0.5;entryDx=0;entryDy=0;" edge="1" source="vb8eYQS8NtuVJ4IHICRe-22" parent="1" target="vb8eYQS8NtuVJ4IHICRe-26">
          <mxGeometry relative="1" as="geometry">
            <mxPoint x="210" y="610" as="targetPoint" />
          </mxGeometry>
        </mxCell>
        <mxCell id="vb8eYQS8NtuVJ4IHICRe-22" value="Client" style="rounded=0;whiteSpace=wrap;html=1;" vertex="1" parent="1">
          <mxGeometry x="40" y="580" width="120" height="60" as="geometry" />
        </mxCell>
        <mxCell id="vb8eYQS8NtuVJ4IHICRe-39" style="edgeStyle=orthogonalEdgeStyle;rounded=0;orthogonalLoop=1;jettySize=auto;html=1;entryX=0;entryY=0.5;entryDx=0;entryDy=0;" edge="1" parent="1" source="vb8eYQS8NtuVJ4IHICRe-26" target="vb8eYQS8NtuVJ4IHICRe-33">
          <mxGeometry relative="1" as="geometry" />
        </mxCell>
        <mxCell id="vb8eYQS8NtuVJ4IHICRe-26" value="Server&lt;br&gt;20000" style="rounded=0;whiteSpace=wrap;html=1;" vertex="1" parent="1">
          <mxGeometry x="380" y="580" width="120" height="60" as="geometry" />
        </mxCell>
        <mxCell id="vb8eYQS8NtuVJ4IHICRe-38" style="edgeStyle=orthogonalEdgeStyle;rounded=0;orthogonalLoop=1;jettySize=auto;html=1;entryX=0.5;entryY=1;entryDx=0;entryDy=0;" edge="1" parent="1" source="vb8eYQS8NtuVJ4IHICRe-33" target="vb8eYQS8NtuVJ4IHICRe-6">
          <mxGeometry relative="1" as="geometry" />
        </mxCell>
        <mxCell id="vb8eYQS8NtuVJ4IHICRe-33" value="Web API&lt;br&gt;Update" style="rounded=0;whiteSpace=wrap;html=1;" vertex="1" parent="1">
          <mxGeometry x="550" y="580" width="120" height="60" as="geometry" />
        </mxCell>
        <mxCell id="vb8eYQS8NtuVJ4IHICRe-41" value="Plataforma de pagamento 1" style="rounded=0;whiteSpace=wrap;html=1;" vertex="1" parent="1">
          <mxGeometry x="100" y="360" width="120" height="60" as="geometry" />
        </mxCell>
        <mxCell id="vb8eYQS8NtuVJ4IHICRe-46" style="edgeStyle=orthogonalEdgeStyle;rounded=0;orthogonalLoop=1;jettySize=auto;html=1;exitX=0.5;exitY=1;exitDx=0;exitDy=0;entryX=0;entryY=0.5;entryDx=0;entryDy=0;" edge="1" parent="1" source="vb8eYQS8NtuVJ4IHICRe-44" target="vb8eYQS8NtuVJ4IHICRe-6">
          <mxGeometry relative="1" as="geometry" />
        </mxCell>
        <mxCell id="vb8eYQS8NtuVJ4IHICRe-44" value="Web API&lt;br&gt;Update" style="rounded=0;whiteSpace=wrap;html=1;" vertex="1" parent="1">
          <mxGeometry x="580" y="300" width="120" height="60" as="geometry" />
        </mxCell>
        <mxCell id="vb8eYQS8NtuVJ4IHICRe-55" style="edgeStyle=orthogonalEdgeStyle;rounded=0;orthogonalLoop=1;jettySize=auto;html=1;entryX=0;entryY=0.5;entryDx=0;entryDy=0;" edge="1" parent="1" source="vb8eYQS8NtuVJ4IHICRe-47" target="vb8eYQS8NtuVJ4IHICRe-12">
          <mxGeometry relative="1" as="geometry" />
        </mxCell>
        <mxCell id="vb8eYQS8NtuVJ4IHICRe-47" value="Plataforma de pagamento 2" style="rounded=0;whiteSpace=wrap;html=1;" vertex="1" parent="1">
          <mxGeometry x="170" y="440" width="120" height="60" as="geometry" />
        </mxCell>
        <mxCell id="vb8eYQS8NtuVJ4IHICRe-48" style="edgeStyle=orthogonalEdgeStyle;rounded=0;orthogonalLoop=1;jettySize=auto;html=1;exitX=0.5;exitY=1;exitDx=0;exitDy=0;entryX=0.917;entryY=0.5;entryDx=0;entryDy=0;entryPerimeter=0;" edge="1" parent="1" source="vb8eYQS8NtuVJ4IHICRe-4" target="vb8eYQS8NtuVJ4IHICRe-47">
          <mxGeometry relative="1" as="geometry" />
        </mxCell>
        <mxCell id="vb8eYQS8NtuVJ4IHICRe-49" value="DB backup" style="rounded=0;whiteSpace=wrap;html=1;" vertex="1" parent="1">
          <mxGeometry x="670" y="680" width="120" height="60" as="geometry" />
        </mxCell>
        <mxCell id="vb8eYQS8NtuVJ4IHICRe-54" style="edgeStyle=orthogonalEdgeStyle;rounded=0;orthogonalLoop=1;jettySize=auto;html=1;entryX=0.5;entryY=0;entryDx=0;entryDy=0;" edge="1" parent="1" source="vb8eYQS8NtuVJ4IHICRe-52" target="vb8eYQS8NtuVJ4IHICRe-14">
          <mxGeometry relative="1" as="geometry" />
        </mxCell>
        <mxCell id="vb8eYQS8NtuVJ4IHICRe-52" value="Redis" style="rounded=0;whiteSpace=wrap;html=1;" vertex="1" parent="1">
          <mxGeometry x="580" y="70" width="120" height="60" as="geometry" />
        </mxCell>
        <mxCell id="vb8eYQS8NtuVJ4IHICRe-58" value="Kafka" style="rounded=0;whiteSpace=wrap;html=1;" vertex="1" parent="1">
          <mxGeometry x="720" y="100" width="120" height="60" as="geometry" />
        </mxCell>
      </root>
    </mxGraphModel>
  </diagram>
</mxfile>
